<svg width="24" height="24" viewBox="0 0 24 24" fill="none" xmlns="http://www.w3.org/2000/svg">
  <path d="M21.914 9.73005L21.434 8.07006L20.324 4.90006C20.1397 4.35403 19.7902 3.87878 19.324 3.54006C18.8528 3.19921 18.2855 3.01709 17.704 3.02006H6.23398C5.65162 3.01892 5.08338 3.1994 4.6084 3.53637C4.13342 3.87333 3.77533 4.35002 3.58398 4.90006L2.45398 8.11005L1.99398 9.73005C1.98426 9.79972 1.98426 9.87039 1.99398 9.94005C1.99736 10.6389 2.19087 11.3236 2.55377 11.9208C2.91668 12.518 3.43528 13.0052 4.05398 13.3301V18.1601C4.05131 18.5311 4.12243 18.899 4.2632 19.2424C4.40398 19.5857 4.61159 19.8977 4.87398 20.1601C5.4065 20.6863 6.12529 20.981 6.87398 20.9801H17.154C17.5234 20.9814 17.8894 20.9096 18.2309 20.7688C18.5724 20.6281 18.8827 20.4212 19.1439 20.16C19.4051 19.8988 19.612 19.5885 19.7528 19.247C19.8935 18.9054 19.9653 18.5394 19.964 18.1701V13.3401C20.503 13.062 20.9663 12.657 21.314 12.1601C21.7724 11.5146 22.0172 10.7418 22.014 9.95006C21.9867 9.87412 21.9532 9.80054 21.914 9.73005ZM15.024 18.1301H8.85398C8.58877 18.1301 8.33441 18.0247 8.14688 17.8372C7.95934 17.6496 7.85398 17.3953 7.85398 17.1301C7.85398 16.8648 7.95934 16.6105 8.14688 16.4229C8.33441 16.2354 8.58877 16.1301 8.85398 16.1301H15.024C15.2892 16.1301 15.5436 16.2354 15.7311 16.4229C15.9186 16.6105 16.024 16.8648 16.024 17.1301C16.024 17.3953 15.9186 17.6496 15.7311 17.8372C15.5436 18.0247 15.2892 18.1301 15.024 18.1301ZM20.024 11.2801C19.742 11.6791 19.344 11.9801 18.884 12.1401C18.5376 12.2575 18.1682 12.2906 17.8065 12.2367C17.4447 12.1828 17.1011 12.0434 16.804 11.8301C16.505 11.619 16.2597 11.3408 16.0878 11.0178C15.9158 10.6948 15.8221 10.3359 15.814 9.97006C15.814 9.77114 15.735 9.58038 15.5943 9.43972C15.4537 9.29907 15.2629 9.22006 15.064 9.22006C14.8651 9.22006 14.6743 9.29907 14.5337 9.43972C14.393 9.58038 14.314 9.77114 14.314 9.97006V10.0201C14.3062 10.2725 14.259 10.5222 14.174 10.7601C14.0072 11.2118 13.7074 11.6023 13.314 11.8801C12.9269 12.1597 12.4615 12.3102 11.984 12.3101C11.4992 12.311 11.0263 12.1601 10.6318 11.8785C10.2372 11.5969 9.94069 11.1988 9.78398 10.7401C9.69211 10.5076 9.64462 10.26 9.64398 10.0101C9.64398 9.81114 9.56496 9.62038 9.42431 9.47972C9.28366 9.33907 9.0929 9.26006 8.89398 9.26006C8.69507 9.26006 8.50431 9.33907 8.36365 9.47972C8.223 9.62038 8.14398 9.81114 8.14398 10.0101C8.13588 10.3773 8.04217 10.7376 7.8703 11.0622C7.69843 11.3869 7.45315 11.6669 7.15398 11.8801C6.75953 12.16 6.28771 12.3103 5.80398 12.3101C5.54164 12.3033 5.28191 12.2561 5.03398 12.1701C4.57676 12.0136 4.18105 11.716 3.90398 11.3201C3.64835 10.9554 3.5026 10.525 3.48398 10.0801L3.89398 8.60006L5.00398 5.44006C5.09344 5.18261 5.26098 4.95947 5.48324 4.80174C5.70551 4.644 5.97144 4.55952 6.24398 4.56006H17.714C17.984 4.56406 18.249 4.64806 18.474 4.80006C18.693 4.96006 18.857 5.18306 18.944 5.44006L20.044 8.56006L20.474 10.0801C20.4322 10.516 20.2694 10.9317 20.004 11.2801H20.024Z" fill="#569961" />
</svg>